# Blender 4.3.2
# www.blender.org
mtllib Hoe.mtl
o Hoe
v 0.200000 0.100000 0.200000
v 0.200000 -0.100000 0.200000
v 0.000000 0.100000 0.000000
v 0.000000 -0.100000 0.000000
v -0.100000 0.000000 0.400000
v -0.100000 0.000000 0.000000
v 0.000000 0.100000 -2.900000
v 0.000000 -0.100000 -2.900000
v -0.100000 0.000000 -2.800000
v 0.100000 0.000000 0.000000
v 0.200000 0.000000 0.100000
v 0.100000 0.000000 -2.800000
v 0.000000 0.000000 -3.000000
v 0.700000 0.000000 0.000000
v 0.400000 0.000000 0.300000
v 0.000000 -0.100000 0.300000
v 0.000000 0.100000 0.300000
vn -0.7071 0.7071 -0.0000
vn -0.1400 0.7001 -0.7001
vn -0.7071 -0.7071 -0.0000
vn 0.3015 0.9045 0.3015
vn 0.7071 0.7071 -0.0000
vn -0.3333 0.6667 -0.6667
vn 0.7071 -0.7071 -0.0000
vn 0.8165 -0.4082 -0.4082
vn -0.8165 0.4082 -0.4082
vn -0.8165 -0.4082 -0.4082
vn 0.8165 0.4082 -0.4082
vn 0.3015 -0.9045 0.3015
vn -0.1400 -0.7001 -0.7001
vn 0.1849 0.7396 0.6472
vn -0.3333 -0.6667 -0.6667
vn 0.1849 -0.7396 0.6472
vn 0.4924 -0.8616 -0.1231
vn 0.4924 0.8616 -0.1231
vt 0.339184 0.014014
vt 0.384642 0.014656
vt 0.384642 0.942257
vt 0.339184 0.909629
vt 0.980796 0.121027
vt 0.938812 0.129864
vt 0.938812 0.015500
vt 0.481380 0.937714
vt 0.435923 0.938357
vt 0.435923 0.042742
vt 0.481380 0.010113
vt 0.807046 0.237692
vt 0.807046 0.079822
vt 0.864496 0.132595
vt 0.311156 0.006569
vt 0.311156 0.909391
vt 0.265735 0.941329
vt 0.265735 0.006263
vt 0.942654 0.186237
vt 0.204688 0.961183
vt 0.204688 0.026116
vt 0.250109 0.058054
vt 0.250109 0.960877
vt 0.882218 0.398463
vt 0.907392 0.464206
vt 0.861971 0.432268
vt 0.948913 0.370235
vt 0.923895 0.405089
vt 0.903456 0.337606
vt 0.955525 0.420165
vt 0.980543 0.455020
vt 0.935086 0.487648
vt 0.826906 0.377058
vt 0.872327 0.345120
vt 0.847153 0.410863
vt 0.559014 0.167807
vt 0.559014 0.009937
vt 0.616464 0.115034
vt 0.923439 0.077271
vt 0.881455 0.182797
vt 0.881455 0.068434
vt 0.815502 0.021965
vt 0.840872 0.006263
vt 0.885297 0.012061
vt 0.749906 0.133848
vt 0.749906 0.005903
vt 0.795363 0.005260
vt 0.795363 0.101219
vt 0.592841 0.241366
vt 0.567471 0.225664
vt 0.678597 0.106069
vt 0.724054 0.138697
vt 0.724054 0.234656
vt 0.678597 0.234014
vt 0.632091 0.115200
vt 0.632091 0.018469
vt 0.677512 0.018163
vt 0.702686 0.051663
vt 0.951896 0.269171
vt 0.906476 0.268865
vt 0.906476 0.172134
vt 0.977071 0.235671
s 0
usemtl Material.005
f 6/1/1 3/2/1 7/3/1 9/4/1
f 11/5/2 1/6/2 14/7/2
f 4/8/3 6/9/3 9/10/3 8/11/3
f 14/12/4 1/13/4 15/14/4
f 10/15/5 12/16/5 7/17/5 3/18/5
f 17/19/6 1/6/6 11/5/6
f 4/20/7 8/21/7 12/22/7 10/23/7
f 13/24/8 12/25/8 8/26/8
f 7/27/9 13/28/9 9/29/9
f 13/30/10 8/31/10 9/32/10
f 7/33/11 12/34/11 13/35/11
f 2/36/12 14/37/12 15/38/12
f 11/39/13 14/40/13 2/41/13
f 15/14/14 1/13/14 17/42/14 5/43/14
f 2/41/15 16/44/15 11/39/15
f 5/45/3 6/46/3 4/47/3 16/48/3
f 2/36/16 15/38/16 5/49/16 16/50/16
f 5/51/1 17/52/1 3/53/1 6/54/1
f 16/55/17 4/56/17 10/57/17 11/58/17
f 10/59/18 3/60/18 17/61/18 11/62/18
