# Blender 4.3.2
# www.blender.org
mtllib Pickaxe.mtl
o Pickaxe
v 0.200000 0.300000 0.200000
v 0.200000 0.100000 0.200000
v -0.200000 0.300000 0.200000
v 0.000000 0.300000 0.000000
v 0.000000 0.100000 0.000000
v -0.200000 0.200000 0.100000
v -0.100000 0.200000 0.000000
v -0.200000 0.100000 0.200000
v 0.000000 0.300000 -2.900000
v 0.000000 0.100000 -2.900000
v -0.100000 0.200000 -2.800000
v 0.100000 0.200000 0.000000
v 0.200000 0.200000 0.100000
v 0.100000 0.200000 -2.800000
v 0.000000 0.200000 -3.000000
v 1.100000 0.200000 0.000000
v -1.000000 0.200000 0.000000
v -0.400000 0.200000 0.300000
v 0.400000 0.200000 0.300000
v 0.000000 0.100000 0.300000
v 0.000000 0.300000 0.300000
v 0.000000 0.200000 0.400000
vn -0.0990 -0.9901 -0.0990
vn -0.1961 -0.7845 0.5883
vn -0.7071 0.7071 -0.0000
vn -0.0783 0.7049 -0.7049
vn -0.7071 -0.7071 -0.0000
vn 0.1991 0.8628 0.4646
vn -0.1961 0.7845 0.5883
vn 0.7071 0.7071 -0.0000
vn -0.3333 0.6667 -0.6667
vn 0.0880 0.7044 -0.7044
vn -0.2182 0.8729 0.4364
vn 0.7071 -0.7071 -0.0000
vn 0.8165 -0.4082 -0.4082
vn -0.8165 0.4082 -0.4082
vn -0.8165 -0.4082 -0.4082
vn 0.8165 0.4082 -0.4082
vn 0.1991 -0.8628 0.4646
vn -0.0783 -0.7049 -0.7049
vn 0.3333 0.6667 -0.6667
vn 0.1961 0.7845 0.5883
vn 0.3333 -0.6667 -0.6667
vn -0.3333 -0.6667 -0.6667
vn -0.4924 -0.8616 -0.1231
vn 0.1961 -0.7845 0.5883
vn -0.4924 0.8616 -0.1231
vn 0.4924 -0.8616 -0.1231
vn 0.4924 0.8616 -0.1231
vt 0.907994 0.774916
vt 0.861299 0.713117
vt 0.908429 0.567616
vt 0.939849 0.746317
vt 0.892284 0.823416
vt 0.861299 0.805017
vt 0.280189 0.020397
vt 0.325993 0.020480
vt 0.325993 0.943578
vt 0.280189 0.911665
vt 0.744350 0.936251
vt 0.701542 0.936443
vt 0.692328 0.726733
vt 0.066201 0.979520
vt 0.020397 0.979603
vt 0.020397 0.088335
vt 0.066201 0.056422
vt 0.778786 0.970682
vt 0.771366 0.741682
vt 0.818061 0.803481
vt 0.632793 0.571998
vt 0.663817 0.553664
vt 0.679425 0.602197
vt 0.632601 0.663898
vt 0.152798 0.020397
vt 0.152798 0.911665
vt 0.106994 0.943578
vt 0.106994 0.020480
vt 0.692328 0.996470
vt 0.980906 0.656985
vt 0.973811 0.845205
vt 0.931036 0.843507
vt 0.679425 0.809498
vt 0.193592 0.979520
vt 0.193592 0.056422
vt 0.239396 0.088335
vt 0.239396 0.979603
vt 0.816643 0.359890
vt 0.839321 0.427828
vt 0.793518 0.395915
vt 0.921268 0.393259
vt 0.898143 0.429284
vt 0.875465 0.361345
vt 0.643001 0.359890
vt 0.666127 0.395915
vt 0.620323 0.427828
vt 0.702270 0.393259
vt 0.748073 0.361345
vt 0.725395 0.429284
vt 0.627198 0.938187
vt 0.634618 0.709188
vt 0.673893 0.876389
vt 0.623435 0.679498
vt 0.571413 0.889015
vt 0.580626 0.679306
vt 0.980906 0.905519
vt 0.787076 0.693182
vt 0.818061 0.711581
vt 0.956592 0.633259
vt 0.956592 0.553681
vt 0.988860 0.605129
vt 0.571413 0.619279
vt 0.758548 0.845942
vt 0.781226 0.809834
vt 0.827030 0.809751
vt 0.827030 0.905244
vt 0.673893 0.968289
vt 0.642908 0.986688
vt 0.660885 0.834688
vt 0.729368 0.775386
vt 0.729368 0.870879
vt 0.683564 0.870796
vt 0.674837 0.791949
vt 0.674837 0.696456
vt 0.720641 0.696539
vt 0.743319 0.732647
vt 0.816753 0.789028
vt 0.770949 0.789110
vt 0.770949 0.693617
vt 0.839432 0.752920
s 0
usemtl Material.003
f 8/1/1 18/2/1 17/3/1 6/4/1
f 20/5/2 22/6/2 18/2/2 8/1/2
f 7/7/3 4/8/3 9/9/3 11/10/3
f 13/11/4 1/12/4 16/13/4
f 5/14/5 7/15/5 11/16/5 10/17/5
f 16/18/6 1/19/6 19/20/6
f 22/21/7 21/22/7 3/23/7 18/24/7
f 12/25/8 14/26/8 9/27/8 4/28/8
f 21/29/9 1/12/9 13/11/9
f 17/30/10 3/31/10 6/32/10
f 18/24/11 3/23/11 17/33/11
f 5/34/12 10/35/12 14/36/12 12/37/12
f 15/38/13 14/39/13 10/40/13
f 9/41/14 15/42/14 11/43/14
f 15/44/15 10/45/15 11/46/15
f 9/47/16 14/48/16 15/49/16
f 2/50/17 16/51/17 19/52/17
f 13/53/18 16/54/18 2/55/18
f 3/31/19 21/56/19 6/32/19
f 19/20/20 1/19/20 21/57/20 22/58/20
f 6/59/21 20/60/21 8/61/21
f 2/55/22 20/62/22 13/53/22
f 6/63/23 7/64/23 5/65/23 20/66/23
f 2/50/24 19/52/24 22/67/24 20/68/24
f 6/69/25 21/70/25 4/71/25 7/72/25
f 20/73/26 5/74/26 12/75/26 13/76/26
f 12/77/27 4/78/27 21/79/27 13/80/27
