# Blender 4.3.2
# www.blender.org
mtllib Hatchet.mtl
o Hatchet
v -0.100000 0.200000 0.000000
v -0.000000 0.300000 0.000000
v -0.000000 0.100000 0.000000
v -0.000000 0.300000 -1.300000
v -0.000000 0.100000 -1.300000
v -0.100000 0.200000 -1.200000
v 0.400000 0.200000 0.500000
v 0.400000 0.200000 -0.200000
v 0.100000 0.200000 0.000000
v 0.100000 0.200000 -1.200000
v -0.000000 0.200000 -1.400000
v -0.000000 0.100000 0.300000
v -0.000000 0.300000 0.300000
v -0.100000 0.200000 0.400000
vn -0.7071 0.7071 -0.0000
vn -0.7071 -0.7071 -0.0000
vn 0.7071 0.7071 -0.0000
vn 0.7071 -0.7071 -0.0000
vn -0.8165 0.4082 -0.4082
vn 0.8165 0.4082 -0.4082
vn 0.8165 -0.4082 -0.4082
vn -0.8165 -0.4082 -0.4082
vn -0.1270 0.7620 0.6350
vn 0.2425 0.9701 -0.0000
vn -0.1270 -0.7620 0.6350
vn 0.2425 -0.9701 -0.0000
vn -0.4851 0.4851 -0.7276
vn -0.4851 -0.4851 -0.7276
vt 0.197239 0.020731
vt 0.273930 0.029062
vt 0.273930 0.611116
vt 0.197239 0.558012
vt 0.504200 0.782457
vt 0.426586 0.783554
vt 0.426586 0.128200
vt 0.504200 0.072490
vt 0.155778 0.020731
vt 0.155778 0.682634
vt 0.080602 0.737793
vt 0.080602 0.020731
vt 0.307385 0.782945
vt 0.307385 0.073752
vt 0.385125 0.127353
vt 0.385125 0.781993
vt 0.228452 0.674119
vt 0.107779 0.792952
vt 0.343032 0.012980
vt 0.461484 0.012980
vt 0.562620 0.552126
vt 0.640234 0.551029
vt 0.640234 0.714867
vt 0.562620 0.770577
vt 0.911138 0.028340
vt 0.931961 0.083499
vt 0.691966 0.138657
vt 0.737653 0.742691
vt 0.660962 0.734360
vt 0.660962 0.555266
vt 0.737653 0.608371
vt 0.588103 0.975763
vt 0.588102 0.589653
vt 0.807275 0.699970
vt 0.807275 0.865446
vt 0.635583 0.011078
vt 0.732459 0.091431
vt 0.557970 0.066788
vt 0.757945 0.657558
vt 0.961962 0.563299
vt 0.961962 0.945172
vt 0.757945 0.821218
vt 0.969758 0.008047
vt 0.969758 0.254096
vt 0.920182 0.194994
vt 0.631875 0.241286
vt 0.588103 0.082457
vt 0.631875 0.018355
s 0
usemtl Material.007
f 1/1/1 2/2/1 4/3/1 6/4/1
f 3/5/2 1/6/2 6/7/2 5/8/2
f 9/9/3 10/10/3 4/11/3 2/12/3
f 3/13/4 5/14/4 10/15/4 9/16/4
f 4/3/5 11/17/5 6/4/5
f 4/11/6 10/10/6 11/18/6
f 11/19/7 10/15/7 5/14/7
f 11/20/8 5/8/8 6/7/8
f 1/21/2 3/22/2 12/23/2 14/24/2
f 13/25/9 14/26/9 7/27/9
f 2/28/1 1/29/1 14/30/1 13/31/1
f 7/32/10 8/33/10 2/34/10 13/35/10
f 12/36/11 7/37/11 14/38/11
f 3/39/12 8/40/12 7/41/12 12/42/12
f 8/43/13 3/44/13 9/45/13
f 8/46/14 9/47/14 2/48/14
