# Blender 4.3.2
# www.blender.org
mtllib Axe.mtl
o Axe
v -0.100000 0.000000 0.600000
v 0.000000 0.100000 0.000000
v 0.000000 -0.100000 0.000000
v -0.100000 0.000000 -0.100000
v 0.000000 0.100000 -2.900000
v 0.000000 -0.100000 -2.600000
v -0.100000 0.000000 -2.800000
v 0.600000 0.000000 0.700000
v 0.500000 0.000000 -0.200000
v 0.100000 0.000000 -0.100000
v 0.100000 0.000000 -2.800000
v 0.000000 0.000000 -3.000000
v 0.100000 -0.100000 0.500000
v 0.000000 0.100000 0.500000
vn -0.7071 0.7071 -0.0000
vn -0.7071 -0.7071 -0.0000
vn 0.7071 0.7071 -0.0000
vn 0.7071 -0.7071 -0.0000
vn -0.8165 0.4082 -0.4082
vn 0.8165 0.4082 -0.4082
vn 0.4364 -0.8729 -0.2182
vn -0.4364 -0.8729 -0.2182
vn -0.0937 0.7493 0.6556
vn -0.5541 -0.8312 0.0462
vn -0.0874 -0.7863 0.6116
vn 0.1960 -0.9802 -0.0280
vn 0.1789 0.9838 -0.0128
vn -0.1961 0.5883 -0.7845
vn -0.1961 -0.5883 -0.7845
vt 0.118450 0.034297
vt 0.165358 0.001953
vt 0.165358 0.959161
vt 0.118450 0.925490
vt 0.211809 1.001953
vt 0.165358 0.968203
vt 0.165358 0.069632
vt 0.211809 0.136662
vt 0.304952 0.033014
vt 0.304952 0.912785
vt 0.258361 0.946893
vt 0.258361 0.001953
vt 0.211809 0.998864
vt 0.211809 0.137477
vt 0.258361 0.070387
vt 0.258361 0.964905
vt 0.780593 0.484551
vt 0.754776 0.520518
vt 0.733684 0.450881
vt 0.873595 0.472283
vt 0.920186 0.438176
vt 0.900495 0.509029
vt 0.651277 0.355469
vt 0.678282 0.423903
vt 0.631731 0.490993
vt 0.612539 0.355469
vt 0.631731 0.490178
vt 0.585280 0.423147
vt 0.662247 0.238824
vt 0.615339 0.205154
vt 0.762981 0.197506
vt 0.872356 0.674597
vt 0.805941 0.828386
vt 0.725590 0.817086
vt 0.851521 0.621094
vt 0.976700 0.907766
vt 0.929792 0.940110
vt 0.929792 0.709060
vt 0.976700 0.742730
vt 0.696566 0.084246
vt 0.616214 0.072945
vt 0.725590 0.922651
vt 0.578274 0.834982
vt 0.566406 0.665413
vt 0.725590 0.621094
vt 0.909969 0.682417
vt 0.909969 0.982006
vt 0.782193 0.949428
vt 0.771484 0.786860
vt 0.912374 0.272020
vt 0.912374 0.154007
vt 0.942578 0.245993
vt 0.912374 0.154007
vt 0.912374 0.015625
vt 0.938527 0.041626
s 0
usemtl Material.004
f 4/1/1 2/2/1 5/3/1 7/4/1
f 3/5/2 4/6/2 7/7/2 6/8/2
f 10/9/3 11/10/3 5/11/3 2/12/3
f 3/13/4 6/14/4 11/15/4 10/16/4
f 5/17/5 12/18/5 7/19/5
f 5/20/6 11/21/6 12/22/6
f 12/23/7 11/24/7 6/25/7
f 12/26/8 6/27/8 7/28/8
f 14/29/9 1/30/9 8/31/9
f 3/32/10 13/33/10 1/34/10 4/35/10
f 2/36/1 4/37/1 1/38/1 14/39/1
f 13/40/11 8/31/11 1/41/11
f 8/42/12 13/43/12 3/44/12 9/45/12
f 8/46/13 9/47/13 2/48/13 14/49/13
f 2/50/14 9/51/14 10/52/14
f 9/53/15 3/54/15 10/55/15
