# Blender 4.3.2
# www.blender.org
mtllib Shovel.mtl
o Shovel
v -0.500000 0.300000 0.400000
v -0.500000 0.200000 0.400000
v -0.400000 0.300000 -0.100000
v 0.000000 0.000000 1.100000
v 0.000000 0.300000 0.000000
v 0.000000 0.100000 0.000000
v -0.100000 0.200000 0.000000
v -0.300000 0.100000 0.800000
v -0.300000 0.000000 0.800000
v 0.000000 0.400000 -2.600000
v 0.000000 0.200000 -2.600000
v -0.100000 0.300000 -2.600000
v 0.500000 0.300000 0.400000
v 0.500000 0.200000 0.400000
v 0.400000 0.300000 -0.100000
v 0.100000 0.200000 0.000000
v 0.300000 0.100000 0.800000
v 0.300000 0.000000 0.800000
v 0.100000 0.300000 -2.600000
v -0.200000 0.300000 -2.900000
v -0.200000 0.100000 -2.900000
v -0.300000 0.200000 -2.900000
v -0.100000 0.300000 -3.000000
v -0.100000 0.100000 -3.000000
v -0.200000 0.200000 -3.000000
v 0.200000 0.300000 -2.900000
v 0.200000 0.100000 -2.900000
v 0.100000 0.300000 -3.000000
v 0.100000 0.100000 -3.000000
v 0.300000 0.200000 -2.900000
v 0.200000 0.200000 -3.000000
vn -0.2762 -0.9206 -0.2762
vn -0.9806 -0.0000 -0.1961
vn -0.8944 -0.0000 0.4472
vn -0.7068 0.7068 0.0272
vn -0.1422 0.9715 0.1896
vn 0.3862 0.9086 0.1590
vn -0.7071 -0.0000 0.7071
vn -0.1194 -0.9787 -0.1671
vn -0.7068 -0.7068 -0.0272
vn 0.2762 -0.9206 -0.2762
vn 0.9806 -0.0000 -0.1961
vn 0.8944 -0.0000 0.4472
vn 0.7068 0.7068 0.0272
vn 0.1422 0.9715 0.1896
vn -0.3862 0.9086 0.1590
vn 0.7071 -0.0000 0.7071
vn 0.1194 -0.9787 -0.1671
vn 0.7068 -0.7068 -0.0272
vn -0.6882 0.6882 0.2294
vn -0.5774 -0.5773 0.5774
vn 0.8321 -0.0000 -0.5547
vn -0.5774 0.5773 -0.5774
vn -0.5773 -0.5774 -0.5774
vn -0.0000 -0.0000 -1.0000
vn 0.5773 -0.5774 -0.5774
vn -0.0000 -0.0000 1.0000
vn -0.0000 -1.0000 -0.0000
vn -0.0000 1.0000 -0.0000
vn 0.5773 0.5774 -0.5774
vn 0.6882 0.6882 0.2294
vn 0.5774 -0.5773 0.5774
vn -0.8321 -0.0000 -0.5547
vt 0.831845 0.902049
vt 0.770556 0.789902
vt 0.792098 0.656888
vt 0.870046 0.687315
vt 0.794694 0.691656
vt 0.770061 0.683066
vt 0.799883 0.597551
vt 0.806037 0.817579
vt 0.781404 0.808988
vt 0.060865 0.277910
vt 0.086298 0.261588
vt 0.135167 0.810298
vt 0.109733 0.826620
vt 0.733692 0.834842
vt 0.655017 0.916131
vt 0.665965 0.620674
vt 0.682489 0.624581
vt 0.794599 0.723851
vt 0.763651 0.594880
vt 0.770061 0.920740
vt 0.891817 0.978989
vt 0.905573 0.692096
vt 0.299706 0.937176
vt 0.263922 0.935066
vt 0.263922 0.261588
vt 0.299706 0.263698
vt 0.966435 0.902049
vt 0.914910 0.687315
vt 0.971551 0.656888
vt 0.994873 0.789902
vt 0.687943 0.818918
vt 0.730545 0.892707
vt 0.666642 0.818918
vt 0.709245 0.708234
vt 0.687943 0.708234
vt 0.318945 0.974032
vt 0.371605 0.301104
vt 0.404776 0.300963
vt 0.352116 0.973892
vt 0.585299 0.834842
vt 0.633025 0.624581
vt 0.547277 0.723851
vt 0.565793 0.594880
vt 0.709245 0.597551
vt 0.211515 0.261588
vt 0.224407 0.804925
vt 0.187574 0.807052
vt 0.174682 0.263715
vt 0.824374 0.428219
vt 0.849808 0.411897
vt 0.827637 0.506898
vt 0.802203 0.523220
vt 0.797676 0.414059
vt 0.775505 0.509060
vt 0.718605 0.393245
vt 0.666428 0.393245
vt 0.640340 0.341069
vt 0.692517 0.341069
vt 0.584855 0.512250
vt 0.558766 0.486162
vt 0.558766 0.460074
vt 0.584855 0.486162
vt 0.756570 0.352013
vt 0.759233 0.316265
vt 0.786311 0.339572
vt 0.783648 0.375319
vt 0.610943 0.460074
vt 0.558766 0.407897
vt 0.610943 0.407897
vt 0.610943 0.381809
vt 0.584855 0.381809
vt 0.584855 0.355720
vt 0.477569 0.525242
vt 0.529746 0.525242
vt 0.529746 0.586259
vt 0.477569 0.586259
vt 0.786311 0.420103
vt 0.761896 0.441581
vt 0.949943 0.343166
vt 0.972821 0.371744
vt 0.874532 0.360507
vt 0.900799 0.337548
vt 0.841361 0.360647
vt 0.867628 0.337688
vt 0.503658 0.601513
vt 0.927192 0.440481
vt 0.894021 0.440621
vt 0.756496 0.340443
vt 0.793329 0.338316
vt 0.780438 0.435075
vt 0.743604 0.437201
vt 0.692517 0.445422
vt 0.640340 0.445422
s 0
usemtl Material
f 9/1/1 2/2/1 3/3/1 7/4/1
f 2/5/2 1/6/2 3/7/2
f 9/8/3 8/9/3 1/6/3 2/5/3
f 7/10/4 5/11/4 10/12/4 12/13/4
f 8/14/5 4/15/5 5/16/5 7/17/5
f 1/18/6 8/14/6 7/17/6 3/19/6
f 4/20/7 8/9/7 9/8/7
f 4/21/8 9/1/8 7/4/8 6/22/8
f 6/23/9 7/24/9 12/25/9 11/26/9
f 18/27/10 16/28/10 15/29/10 14/30/10
f 14/31/11 15/32/11 13/33/11
f 18/34/12 14/31/12 13/33/12 17/35/12
f 16/36/13 19/37/13 10/38/13 5/39/13
f 17/40/14 16/41/14 5/16/14 4/15/14
f 13/42/15 15/43/15 16/41/15 17/40/15
f 4/44/16 18/34/16 17/35/16
f 4/21/17 6/22/17 16/28/17 18/27/17
f 6/45/18 11/46/18 19/47/18 16/48/18
f 12/49/19 10/50/19 20/51/19 22/52/19
f 11/53/20 12/49/20 22/52/20 21/54/20
f 10/55/21 11/56/21 21/57/21 20/58/21
f 22/59/22 20/60/22 23/61/22 25/62/22
f 21/63/23 22/64/23 25/65/23 24/66/23
f 24/67/24 23/61/24 28/68/24 29/69/24
f 27/70/25 29/69/25 31/71/25 30/72/25
f 20/73/26 21/74/26 27/75/26 26/76/26
f 21/63/27 24/66/27 29/77/27 27/78/27
f 23/79/28 20/80/28 26/81/28 28/82/28
f 29/69/24 28/68/24 31/71/24
f 28/82/29 26/81/29 30/83/29 31/84/29
f 26/76/26 27/75/26 30/85/26
f 10/86/30 19/87/30 30/83/30 26/81/30
f 19/88/31 11/89/31 27/90/31 30/91/31
f 11/56/32 10/55/32 26/92/32 27/93/32
f 23/61/24 24/67/24 25/62/24
